<svg width="200" height="205" viewBox="0 0 200 205" fill="none" xmlns="http://www.w3.org/2000/svg">
  <defs>
    <linearGradient id="globeGrad" x1="15%" y1="85%" x2="85%" y2="15%">
      <stop offset="0%" stop-color="#2D2363" />
      <stop offset="32%" stop-color="#1E3A8A" />
      <stop offset="68%" stop-color="#1B82B5" />
      <stop offset="100%" stop-color="#2BC9D9" />
    </linearGradient>
    <linearGradient id="nGrad" x1="15%" y1="85%" x2="85%" y2="15%">
      <stop offset="0%" stop-color="#2B2568" />
      <stop offset="45%" stop-color="#1E3A8A" />
      <stop offset="100%" stop-color="#2376B7" />
    </linearGradient>
    <radialGradient id="shadowGrad" cx="50%" cy="50%" r="50%">
      <stop offset="0%" stop-color="#1E3A8A" stop-opacity="0.28" />
      <stop offset="60%" stop-color="#1E3A8A" stop-opacity="0.10" />
      <stop offset="100%" stop-color="#1E3A8A" stop-opacity="0" />
    </radialGradient>
  </defs>
  <ellipse cx="100" cy="192" rx="56" ry="6" fill="url(#shadowGrad)" />
  <g stroke="url(#globeGrad)" stroke-linecap="round" stroke-linejoin="round">
    <circle cx="100" cy="92" r="78" stroke-width="6" fill="none" />
    <path d="M 100 14 C 48 28, 30 60, 22 92 C 30 124, 48 156, 100 170" stroke-width="3.6" fill="none" />
    <path d="M 100 14 C 152 28, 170 60, 178 92 C 170 124, 152 156, 100 170" stroke-width="3.6" fill="none" />
    <path d="M 100 14 C 76 26, 50 56, 42 92 C 50 128, 76 158, 100 170" stroke-width="3.6" fill="none" />
    <path d="M 100 14 C 124 26, 150 56, 158 92 C 150 128, 124 158, 100 170" stroke-width="3.6" fill="none" />
    <path d="M 100 14 Q 88 30 84 47" stroke-width="3.5" fill="none" />
    <path d="M 100 14 Q 112 30 116 47" stroke-width="3.5" fill="none" />
    <path d="M 100 170 Q 88 154 84 137" stroke-width="3.5" fill="none" />
    <path d="M 100 170 Q 112 154 116 137" stroke-width="3.5" fill="none" />
    <path d="M 32 54 Q 64 36 100 36 Q 136 36 168 54" stroke-width="3.5" fill="none" />
    <path d="M 32 130 Q 64 148 100 148 Q 136 148 168 130" stroke-width="3.5" fill="none" />
    <line x1="22" y1="92" x2="53" y2="92" stroke-width="3.5" />
    <line x1="22" y1="92" x2="47" y2="66" stroke-width="3.2" />
    <line x1="22" y1="92" x2="47" y2="118" stroke-width="3.2" />
    <line x1="178" y1="92" x2="147" y2="92" stroke-width="3.5" />
    <line x1="178" y1="92" x2="153" y2="66" stroke-width="3.2" />
    <line x1="178" y1="92" x2="153" y2="118" stroke-width="3.2" />
    <line x1="47" y1="66" x2="57" y2="71" stroke-width="3.5" />
    <line x1="47" y1="118" x2="57" y2="113" stroke-width="3.5" />
    <line x1="153" y1="66" x2="143" y2="71" stroke-width="3.5" />
    <line x1="153" y1="118" x2="143" y2="113" stroke-width="3.5" />
    <line x1="72" y1="39" x2="76" y2="48" stroke-width="3.5" />
    <line x1="128" y1="39" x2="124" y2="48" stroke-width="3.5" />
    <line x1="72" y1="145" x2="76" y2="136" stroke-width="3.5" />
    <line x1="128" y1="145" x2="124" y2="136" stroke-width="3.5" />
  </g>
  <g fill="url(#globeGrad)">
    <circle cx="53" cy="46" r="4.8" />
    <circle cx="72" cy="39" r="5.4" />
    <circle cx="86" cy="37" r="5.2" />
    <circle cx="114" cy="37" r="5.2" />
    <circle cx="128" cy="39" r="5.4" />
    <circle cx="147" cy="46" r="4.8" />
    <circle cx="47" cy="66" r="5.4" />
    <circle cx="42" cy="92" r="5.6" />
    <circle cx="47" cy="118" r="5.4" />
    <circle cx="153" cy="66" r="5.4" />
    <circle cx="158" cy="92" r="5.6" />
    <circle cx="153" cy="118" r="5.4" />
    <circle cx="53" cy="138" r="4.8" />
    <circle cx="72" cy="145" r="5.4" />
    <circle cx="86" cy="147" r="5.2" />
    <circle cx="114" cy="147" r="5.2" />
    <circle cx="128" cy="145" r="5.4" />
    <circle cx="147" cy="138" r="4.8" />
  </g>
  <path d="M 68 128 L 68 56 L 85 56 L 115 101 L 115 56 L 132 56 L 132 128 L 115 128 L 85 83 L 85 128 Z" fill="url(#nGrad)" />
</svg>
